<svg width="23" height="23" viewBox="0 0 23 23" fill="none" xmlns="http://www.w3.org/2000/svg">
<path d="M19.5997 9.71744C19.6045 6.88048 18.321 4.19397 16.1106 2.41574C13.9001 0.636541 11.0015 -0.0421849 8.23085 0.570173C5.46118 1.18156 3.11811 3.01863 1.86212 5.5627C0.606191 8.10677 0.57302 11.0833 1.77302 13.655C2.97208 16.2267 5.27356 18.1139 8.02988 18.7868C10.7862 19.4598 13.699 18.8456 15.9484 17.1157L20.9476 22.115L22.6633 20.3993L17.6641 15.4L17.6631 15.4009C18.921 13.7724 19.6015 11.7743 19.5996 9.71729L19.5997 9.71744ZM10.265 16.6258C8.43184 16.6267 6.67349 15.8987 5.37674 14.603C4.07999 13.3072 3.35207 11.5488 3.35207 9.71552C3.35113 7.88228 4.08004 6.12485 5.37577 4.82807C6.67247 3.5323 8.42982 2.80334 10.2631 2.80431C12.0963 2.80431 13.8546 3.5323 15.1504 4.82904C16.4462 6.12577 17.1741 7.88415 17.1731 9.71746C17.1712 11.5488 16.4423 13.3042 15.1475 14.6001C13.8518 15.8949 12.0964 16.6238 10.2651 16.6257L10.265 16.6258Z" fill="white"/>
</svg>
