<svg width="37" height="71" viewBox="0 0 37 71" fill="none" xmlns="http://www.w3.org/2000/svg">
<g id="Youtube_shorts_icon 1" clip-path="url(#clip0_288_4919)">
<path id="Subtract" fill-rule="evenodd" clip-rule="evenodd" d="M55.0355 7.22436C51.5212 0.616412 43.2541 -1.91846 36.577 1.56123L7.29928 16.9433C0.622201 20.423 -1.94147 28.5979 1.57278 35.2059C3.93481 39.6476 8.44573 42.2459 13.1756 42.4187L7.68527 45.305C1.00819 48.7847 -1.55548 56.9596 1.95877 63.5676C5.47302 70.1755 13.7402 72.7104 20.4172 69.2307L49.695 53.8487C56.3778 50.369 58.9357 42.194 55.4215 35.5861C53.0594 31.1443 48.5485 28.5461 43.8187 28.3732L49.309 25.4869C55.9861 22.0073 58.5497 13.8323 55.0355 7.22436ZM20.7744 24.5018L20.7744 46.3305L38.4955 35.4421L20.7744 24.5018Z" fill="#FFFFFE"/>
</g>
<defs>
<clipPath id="clip0_288_4919">
<rect width="57" height="70.792" fill="white"/>
</clipPath>
</defs>
</svg>
