<svg width="144" height="95" viewBox="0 0 144 95" fill="none" xmlns="http://www.w3.org/2000/svg">
<g id="Layer 1">
<path id="Vector" d="M116.864 33.5538C113.777 23.8705 107.708 15.4111 99.5237 9.38488C91.3396 3.35864 81.4597 0.0740916 71.2966 0.000766626C62.704 -0.0481559 54.2605 2.24529 46.8735 6.63463C39.4865 11.024 33.4352 17.3433 29.3699 24.9135C21.8977 26.2512 15.0474 29.9389 9.81645 35.4399C4.58546 40.9409 1.2468 47.9679 0.286482 55.4979C-0.673832 63.028 0.79434 70.668 4.47727 77.3057C8.16019 83.9435 13.8656 89.2325 20.7629 92.4028L21.6628 92.8194H21.7128V82.6793C16.9769 79.7731 13.2691 75.4579 11.1091 70.3384C8.94915 65.219 8.44522 59.552 9.66799 54.1317C10.8908 48.7115 13.7789 43.8097 17.9277 40.1135C22.0764 36.4173 27.2778 34.1119 32.8027 33.5204L35.3023 33.2621L36.3938 30.9792C39.5167 24.377 44.4609 18.8045 50.6444 14.9178C56.8279 11.0312 63.9932 8.99223 71.2966 9.041C79.9993 9.10053 88.4324 12.0679 95.2548 17.4712C102.077 22.8745 106.897 30.4035 108.949 38.8613L109.782 42.2857L113.307 42.344C119.077 42.4657 124.572 44.8371 128.619 48.9526C132.666 53.0681 134.945 58.602 134.97 64.3739C134.97 72.7975 130.112 79.6714 121.872 83.1626V92.786L122.463 92.5861C135.753 88.2451 144.01 77.4301 144.01 64.3739C143.974 56.8234 141.205 49.5414 136.214 43.8753C131.224 38.2092 124.35 34.5426 116.864 33.5538Z" fill="#FFFFFE"/>
<path id="Vector_2" d="M53.7994 91.6537L55.7824 93.6367C55.8399 93.6915 55.8794 93.7624 55.8956 93.8401C55.9119 93.9178 55.9041 93.9986 55.8734 94.0718C55.8427 94.145 55.7904 94.2071 55.7236 94.2499C55.6568 94.2928 55.5785 94.3143 55.4991 94.3116H39.8683C38.9343 94.3127 38.0092 94.1297 37.1459 93.773C36.2827 93.4163 35.4982 92.893 34.8374 92.2329C34.1765 91.5728 33.6523 90.789 33.2946 89.9261C32.9369 89.0633 32.7528 88.1384 32.7528 87.2044V56.7759C32.7528 56.672 32.7115 56.5724 32.6381 56.499C32.5646 56.4255 32.465 56.3843 32.3612 56.3843H28.97C28.8925 56.3829 28.817 56.359 28.7528 56.3155C28.6885 56.272 28.6384 56.2107 28.6083 56.1392C28.5783 56.0677 28.5697 55.989 28.5837 55.9126C28.5976 55.8363 28.6334 55.7657 28.6867 55.7094L41.9596 42.4448C41.9955 42.4068 42.0387 42.3764 42.0867 42.3557C42.1347 42.3349 42.1865 42.3242 42.2388 42.3242C42.2911 42.3242 42.3428 42.3349 42.3908 42.3557C42.4388 42.3764 42.482 42.4068 42.5179 42.4448L55.7824 55.7094C55.8399 55.7642 55.8794 55.8351 55.8956 55.9128C55.9119 55.9905 55.9041 56.0713 55.8734 56.1445C55.8427 56.2177 55.7904 56.2798 55.7236 56.3226C55.6568 56.3654 55.5785 56.387 55.4991 56.3843H52.108C52.0042 56.3843 51.9046 56.4255 51.8311 56.499C51.7577 56.5724 51.7164 56.672 51.7164 56.7759V86.6545C51.7237 88.5305 52.4725 90.3275 53.7994 91.6537Z" fill="#FFFFFE"/>
<path id="Vector_3" d="M83.128 91.6558L85.111 93.6388C85.1685 93.6936 85.208 93.7645 85.2242 93.8422C85.2404 93.9199 85.2327 94.0007 85.202 94.0739C85.1712 94.1471 85.119 94.2092 85.0522 94.252C84.9853 94.2949 84.9071 94.3164 84.8277 94.3137H69.1636C68.2295 94.3148 67.3045 94.1318 66.4412 93.7751C65.578 93.4184 64.7935 92.8951 64.1326 92.235C63.4718 91.5749 62.9475 90.7911 62.5898 89.9282C62.2321 89.0654 62.048 88.1405 62.048 87.2065V64.4268C62.0491 64.3747 62.0398 64.3229 62.0206 64.2744C62.0015 64.2259 61.9728 64.1817 61.9363 64.1445C61.8999 64.1072 61.8563 64.0776 61.8082 64.0574C61.7602 64.0373 61.7086 64.0268 61.6564 64.0269H58.332C58.2544 64.0255 58.1789 64.0016 58.1147 63.9581C58.0505 63.9146 58.0003 63.8533 57.9703 63.7818C57.9403 63.7103 57.9317 63.6315 57.9456 63.5552C57.9595 63.4789 57.9953 63.4083 58.0487 63.352L71.2882 50.0874C71.3241 50.0493 71.3673 50.019 71.4153 49.9982C71.4633 49.9775 71.5151 49.9668 71.5674 49.9668C71.6196 49.9668 71.6714 49.9775 71.7194 49.9982C71.7674 50.019 71.8106 50.0493 71.8465 50.0874L85.111 63.327C85.1685 63.3817 85.208 63.4527 85.2242 63.5304C85.2404 63.6081 85.2327 63.6889 85.202 63.762C85.1712 63.8352 85.119 63.8974 85.0522 63.9402C84.9853 63.983 84.9071 64.0045 84.8277 64.0019H81.4366C81.3845 64.0019 81.3329 64.0123 81.2848 64.0325C81.2367 64.0527 81.1932 64.0822 81.1567 64.1195C81.1202 64.1567 81.0916 64.2009 81.0724 64.2494C81.0532 64.2979 81.0439 64.3497 81.045 64.4018V86.6566C81.0523 88.5326 81.8011 90.3296 83.128 91.6558Z" fill="#FFFFFE"/>
<path id="Vector_4" d="M112.49 91.6528L114.473 93.6358C114.53 93.6901 114.569 93.7602 114.586 93.8371C114.602 93.914 114.595 93.994 114.565 94.0669C114.536 94.1397 114.485 94.2019 114.419 94.2454C114.354 94.2888 114.277 94.3116 114.198 94.3107H98.5256C96.6399 94.3107 94.8313 93.5622 93.4971 92.2295C92.1629 90.8969 91.4123 89.0892 91.4101 87.2035V72.0642C91.4101 71.9604 91.3688 71.8608 91.2954 71.7873C91.2219 71.7139 91.1223 71.6726 91.0185 71.6726H87.6273C87.5487 71.6735 87.4716 71.6508 87.4061 71.6073C87.3406 71.5638 87.2897 71.5016 87.2601 71.4288C87.2304 71.356 87.2233 71.2759 87.2398 71.199C87.2563 71.1221 87.2955 71.052 87.3524 70.9977L100.617 57.7248C100.692 57.6521 100.792 57.6113 100.896 57.6113C101 57.6113 101.1 57.6521 101.175 57.7248L114.44 70.9977C114.491 71.0533 114.526 71.1228 114.539 71.1976C114.552 71.2724 114.543 71.3494 114.513 71.4192C114.483 71.4889 114.433 71.5484 114.37 71.5905C114.306 71.6325 114.232 71.6553 114.156 71.656H110.757C110.653 71.656 110.554 71.6972 110.48 71.7706C110.407 71.8441 110.365 71.9437 110.365 72.0476V86.6536C110.384 88.5356 111.148 90.3334 112.49 91.6528Z" fill="#FFFFFE"/>
</g>
</svg>
