<svg width="14" height="14" viewBox="0 0 14 14" fill="none" xmlns="http://www.w3.org/2000/svg">
<path fill-rule="evenodd" clip-rule="evenodd" d="M13.5915 9.08897C13.5947 9.39429 13.6109 9.70414 13.5525 10.0049C13.3574 11.0062 12.179 11.6836 10.7831 11.621C9.94315 11.5839 9.34366 11.2926 9.01783 10.7271C8.62719 10.0464 8.98207 9.30074 9.86022 8.92458C10.3979 8.69459 11.0008 8.61542 11.5951 8.52024C12.4096 8.38992 12.4961 8.31897 12.487 7.70904C12.4694 6.52203 12.4461 5.33516 12.4256 4.14874C12.4252 4.11317 12.4247 4.07694 12.4214 4.04141C12.3947 3.78539 12.2738 3.71855 11.9293 3.77483C10.7044 3.97236 6.7921 4.60168 6.05937 4.7168C5.6006 4.78936 5.51967 4.86091 5.52242 5.20718C5.53683 7.0567 5.55776 8.90596 5.56564 10.7549C5.56682 10.9824 5.53641 11.215 5.47051 11.4373C5.21311 12.3045 4.38832 12.8451 3.15057 12.9837C2.4722 13.0592 1.84775 12.9903 1.34044 12.6313C0.445106 11.9989 0.627645 10.8206 1.68956 10.3354C2.22882 10.0886 2.83701 9.9852 3.44518 9.88045C3.6086 9.8521 3.77102 9.81906 3.9306 9.78203C4.2887 9.69807 4.47056 9.51779 4.47252 9.24462C4.47337 8.95937 4.47422 8.67414 4.47135 8.38893C4.44816 6.50878 4.42404 4.62914 4.40085 2.74967C4.394 2.23567 4.59072 2.05251 5.27783 1.9353C7.59822 1.53995 9.9178 1.14461 12.239 0.751253C12.4433 0.716987 12.6514 0.690052 12.8597 0.67788C13.1489 0.661945 13.3654 0.773824 13.4323 0.978974C13.476 1.11128 13.4918 1.25066 13.4936 1.38688C13.5158 2.77248 13.5814 7.90713 13.5916 9.08887L13.5915 9.08897Z" fill="white"/>
</svg>
