<svg width="37" height="30" viewBox="0 0 37 30" fill="none" xmlns="http://www.w3.org/2000/svg">
<path opacity="0.7" d="M36.1454 16.4384L23.5522 29.0319C23.0378 29.5463 22.2654 29.6998 21.5925 29.4215C20.9212 29.1432 20.4828 28.4871 20.4828 27.7602V22.3917C8.50008 22.7999 3.80139 27.1968 3.75433 27.2438H3.75264C3.18429 27.797 2.31911 27.9117 1.62426 27.5272C0.929408 27.1409 0.568511 26.3466 0.737151 25.5708C0.774254 25.4004 4.56553 9.1808 20.4826 8.03405V2.57317C20.4826 1.84626 20.9211 1.1902 21.5923 0.911893C22.2653 0.633612 23.0377 0.787089 23.5521 1.30149L36.1453 13.895C36.4826 14.2323 36.6732 14.6894 36.6732 15.1667C36.6732 15.644 36.4826 16.101 36.1453 16.4383L36.1454 16.4384Z" fill="white"/>
</svg>
