<svg width="58" height="58" viewBox="0 0 58 58" fill="none" xmlns="http://www.w3.org/2000/svg">
<g id="Group">
<g id="Group 11">
<path id="Vector" d="M28.9731 14.1579C28.4661 14.1579 27.9591 14.1767 27.4709 14.233C26.9827 14.2894 26.4945 14.3645 26.0063 14.4584C25.5181 14.5522 25.0487 14.6837 24.598 14.8151L23.2273 15.3221L21.9504 15.9418L20.7299 16.6928L19.5845 17.5566L18.533 18.5142L17.5754 19.5657L16.7304 20.7111L15.9793 21.9317L15.3597 23.2273C15.1719 23.6779 15.0029 24.1286 14.8527 24.5792C14.7025 25.0487 14.5898 25.5181 14.4959 25.9875C14.402 26.4757 14.3269 26.9639 14.2706 27.4521C14.1204 28.9543 14.1955 30.4565 14.4959 31.9399C14.6837 32.8975 14.9841 33.8176 15.3597 34.7189L15.9793 36.0145L16.7304 37.235L17.5754 38.3804L18.533 39.4319L19.5845 40.3896L20.7299 41.2533L21.9504 42.0044L23.2461 42.624L24.598 43.131L26.0063 43.4878C27.4897 43.7882 28.9919 43.8633 30.494 43.7131C30.9822 43.6568 31.4704 43.5817 31.9586 43.4878L33.3669 43.131L34.7189 42.624L36.0145 42.0044L37.235 41.2533L38.3804 40.3896L39.4319 39.4319L40.3896 38.3804L41.2533 37.235L42.0044 36.0145L42.624 34.7189L43.131 33.3669C43.2812 32.8975 43.3939 32.4281 43.4878 31.9586L43.7131 30.494C43.7694 30.0058 43.7882 29.4988 43.7882 28.9918C43.7882 28.4849 43.7694 27.9779 43.7131 27.4897C43.6568 27.0015 43.5817 26.5133 43.4878 26.0251C43.3939 25.5556 43.2625 25.0674 43.131 24.6168L42.624 23.2648L42.0044 21.9692L41.2721 20.7487L40.4083 19.6033L39.4507 18.5518L38.3992 17.5941L37.2538 16.7492L36.0333 15.9981L34.7377 15.3784L33.3857 14.8715L31.9774 14.5147L30.5128 14.2894C29.9683 14.1767 29.4801 14.1579 28.9731 14.1579ZM28.9731 19.2653C29.3111 19.2653 29.6303 19.2841 29.9683 19.3216L30.9259 19.4718L31.8648 19.716L32.7661 20.0352L33.611 20.4483L34.4184 20.9365L35.1695 21.4998L35.8643 22.1194L36.4839 22.8142L37.0285 23.5653L37.5167 24.3727L37.9298 25.2176C38.0424 25.4993 38.1551 25.7997 38.249 26.119C38.3429 26.4194 38.418 26.7386 38.4931 27.0578C38.5494 27.377 38.6057 27.6962 38.6433 28.0154L38.6996 29.0106C38.6996 29.3486 38.6808 29.6866 38.6433 30.0058C38.6057 30.3438 38.5682 30.663 38.4931 30.9634C38.4367 31.2827 38.3429 31.5831 38.249 31.9023L37.9298 32.8036L37.5167 33.6486L37.0285 34.4372L36.4839 35.1883L35.8643 35.8831L35.1695 36.5027L34.4184 37.0472L33.611 37.5354L32.7661 37.9485L31.8648 38.2677L30.9259 38.5118L29.9495 38.6621C29.6115 38.6996 29.2923 38.7184 28.9543 38.7184C28.6163 38.7184 28.2971 38.6996 27.9591 38.6621L27.0015 38.5118C26.6823 38.4555 26.3818 38.3616 26.0626 38.2677L25.1801 37.9485L24.3351 37.5354L23.5277 37.0472L22.7766 36.5027L22.0819 35.8831L21.4622 35.1883L20.9177 34.4372L20.4295 33.6298L20.0164 32.7848L19.6972 31.8835L19.4531 30.9447L19.3029 29.987C19.2653 29.649 19.2465 29.3298 19.2465 28.9918C19.2465 28.6539 19.2653 28.3347 19.3029 27.9967C19.3404 27.6587 19.378 27.3395 19.4531 27.039C19.5094 26.7198 19.6033 26.4194 19.6972 26.1002L20.0164 25.1989L20.4295 24.3539L20.9177 23.5465L21.4622 22.7954L22.0819 22.1006L22.7766 21.481L23.5277 20.9365L24.3351 20.4483L25.1801 20.0352C25.4805 19.9225 25.7622 19.8098 26.0626 19.716L27.0015 19.4718C27.3207 19.4155 27.6399 19.3592 27.9591 19.3216C28.2783 19.2841 28.6351 19.2841 28.9731 19.2653Z" fill="#FFFFFE"/>
<path id="Vector_2" d="M44.3703 9.95188C44.2577 9.95188 44.145 9.95188 44.0136 9.97066C43.9009 9.98944 43.7882 10.0082 43.6756 10.027C43.5629 10.0458 43.4503 10.0833 43.3376 10.1209C43.2249 10.1584 43.1123 10.196 42.9996 10.2523C42.8869 10.2899 42.7931 10.3462 42.6804 10.4025C42.5677 10.4589 42.4738 10.5152 42.38 10.5903C42.2861 10.6654 42.1922 10.7217 42.0983 10.7969C42.0044 10.872 41.9105 10.9471 41.8354 11.041C41.7603 11.1161 41.6852 11.2099 41.6101 11.3038C41.535 11.3977 41.4599 11.4916 41.4036 11.5855C41.3284 11.6794 41.2721 11.792 41.2158 11.8859C41.1595 11.9986 41.1219 12.0925 41.0656 12.2051C41.0092 12.3178 40.9905 12.4305 40.9529 12.5431C40.9153 12.6558 40.8966 12.7685 40.8778 12.8811C40.859 12.9938 40.8402 13.1064 40.8402 13.2379C40.8402 13.313 40.8402 13.4069 40.8402 13.482C40.8402 13.7261 40.859 13.9514 40.9153 14.1955C40.9341 14.3082 40.9717 14.4208 41.0092 14.5335C41.0468 14.6462 41.0843 14.7588 41.1407 14.8715C41.1782 14.9841 41.2346 15.0968 41.2909 15.1907C41.3472 15.3034 41.4036 15.3972 41.4787 15.4911C41.5538 15.585 41.6101 15.6789 41.6852 15.7728C41.7603 15.8667 41.8354 15.9606 41.9293 16.0357C42.0044 16.1108 42.0983 16.2047 42.1922 16.261C42.2861 16.3361 42.38 16.4112 42.4738 16.4675C42.5677 16.5426 42.6804 16.599 42.7743 16.6553C42.8869 16.7116 42.9808 16.7492 43.0935 16.8055C43.2062 16.8431 43.3188 16.8806 43.4315 16.9182C43.5441 16.9557 43.6568 16.9745 43.7695 16.9933C43.8821 17.0121 43.9948 17.0309 44.1262 17.0309C44.2013 17.0309 44.2952 17.0309 44.3703 17.0309C44.483 17.0309 44.6144 17.0309 44.7271 17.0121C44.8398 16.9933 44.9524 16.9745 45.0839 16.9557C45.1965 16.937 45.3092 16.8994 45.4219 16.8619C45.5345 16.8243 45.6472 16.7868 45.7598 16.7304C45.9852 16.6365 46.1917 16.5239 46.3795 16.3924C46.4734 16.3173 46.5673 16.261 46.6611 16.1859C46.755 16.1108 46.8301 16.0357 46.924 15.9418C46.9991 15.8479 47.0742 15.7728 47.1494 15.6789C47.2996 15.4911 47.431 15.2846 47.5249 15.078C47.5812 14.9654 47.6188 14.8715 47.6751 14.7588C47.7127 14.6462 47.7502 14.5335 47.7878 14.4208C47.8253 14.3082 47.8441 14.1955 47.8629 14.0828C47.8817 13.9702 47.9004 13.8575 47.9004 13.7261C47.9004 13.651 47.9004 13.5571 47.9004 13.482C47.9004 13.3693 47.9004 13.2379 47.8817 13.1252C47.8629 13.0126 47.8441 12.8811 47.8253 12.7685C47.8065 12.6558 47.769 12.5243 47.7314 12.4305C47.6188 12.0925 47.4686 11.7733 47.2808 11.4728C47.2057 11.3789 47.1493 11.2851 47.0742 11.1912C46.9991 11.0973 46.924 11.0034 46.8301 10.9283C46.755 10.8532 46.6611 10.7593 46.5673 10.703C46.4734 10.6466 46.3795 10.5528 46.2856 10.4964C46.1729 10.4401 46.0791 10.365 45.9852 10.3086C45.8725 10.2523 45.7786 10.2148 45.666 10.1584C45.5533 10.1209 45.4406 10.0833 45.328 10.0458C45.2153 10.0082 45.1026 9.98944 44.99 9.97066C44.8773 9.95188 44.7647 9.93311 44.6332 9.93311C44.5393 9.95188 44.4642 9.95188 44.3703 9.95188Z" fill="#FFFFFE"/>
<path id="Vector_3" d="M26.1565 0C24.5417 0 23.1146 1.14578e-06 21.819 0.0187783L18.3452 0.112664C17.3125 0.150218 16.4112 0.206549 15.6038 0.300435C15.1907 0.337989 14.8151 0.37554 14.4584 0.431871C14.1016 0.488203 13.7636 0.52576 13.4256 0.582092C13.0876 0.638423 12.7872 0.694754 12.4868 0.769863C12.1863 0.844971 11.9047 0.901298 11.623 0.976407C11.3414 1.05151 11.0973 1.12663 10.8156 1.22051C10.5527 1.3144 10.3086 1.40828 10.0645 1.50217C9.55755 1.70872 9.08812 1.91527 8.58114 2.15937C8.2056 2.34714 7.84883 2.55369 7.51085 2.74146C7.17286 2.94801 6.85365 3.15456 6.53444 3.39866C6.21523 3.64276 5.89601 3.90564 5.59558 4.16852C5.29515 4.4314 4.95716 4.76938 4.63795 5.10737C4.22485 5.53925 3.86809 5.95234 3.54887 6.34666C3.37988 6.55321 3.22966 6.74098 3.09822 6.94753C2.96678 7.15408 2.81657 7.34185 2.7039 7.5484C2.57246 7.75495 2.4598 7.9615 2.34714 8.16805C2.23448 8.37459 2.12181 8.59992 2.00915 8.82524C1.8026 9.2759 1.59605 9.7641 1.40828 10.3086C1.25807 10.703 1.12663 11.1161 1.01396 11.5291C0.901301 11.9422 0.788639 12.3929 0.694753 12.8623C0.600867 13.3318 0.506982 13.8575 0.450651 14.4208C0.375542 15.0405 0.319211 15.6601 0.26288 16.2985C0.206548 16.9933 0.168994 17.7444 0.13144 18.5893L0.0563312 21.3871L0.018777 24.8046L0 28.9355L0.0375542 34.9254L0.150217 39.4695L0.244102 41.2533L0.356765 42.7179C0.394319 43.1123 0.431874 43.5066 0.488205 43.9009C0.544536 44.2577 0.600868 44.5581 0.657199 44.821C0.769862 45.3655 0.920078 45.8913 1.0703 46.417C1.23929 46.9428 1.38951 47.4122 1.59605 47.9192C1.8026 48.4074 2.00915 48.8581 2.23448 49.3087C2.4598 49.7594 2.7039 50.1912 2.98556 50.5855C3.24844 50.9986 3.5301 51.393 3.84931 51.7685C4.14974 52.144 4.46895 52.5008 4.82572 52.8576C5.16371 53.2143 5.53925 53.5336 5.91479 53.8528C6.29033 54.172 6.70343 54.4724 7.11653 54.7353C7.51085 54.9982 7.88639 55.2235 8.26193 55.4488C8.63747 55.6742 9.03179 55.8619 9.42611 56.0309C9.82043 56.2187 10.2335 56.3689 10.6654 56.5191C11.0973 56.6693 11.5291 56.8008 11.9986 56.9134C12.468 57.0261 12.9562 57.12 13.482 57.2139C14.0077 57.3078 14.571 57.3829 15.1719 57.4392C15.754 57.4955 16.4112 57.5519 17.106 57.6082C17.8007 57.6457 18.533 57.6833 19.3217 57.7209C20.5422 57.7584 22.3823 57.796 24.5229 57.796L31.4141 57.7772L37.9298 57.6833L40.4083 57.6082L42.0232 57.5331C42.3612 57.4955 42.7179 57.4767 43.0371 57.4392C43.3751 57.4016 43.6943 57.3641 43.9948 57.3078C44.314 57.2514 44.6144 57.1951 44.9149 57.1388C45.2153 57.0824 45.5157 57.0073 45.8162 56.9322C46.1166 56.8571 46.3983 56.782 46.6799 56.6881C46.9616 56.5942 47.2432 56.5003 47.5249 56.4065C47.8065 56.2938 48.0882 56.1999 48.3698 56.0685C48.6515 55.9558 48.9332 55.8244 49.2148 55.6929C49.6467 55.4864 49.9847 55.3174 50.2851 55.1484C50.5668 54.9982 50.8484 54.8104 51.1113 54.6226C51.393 54.4161 51.6746 54.1908 51.9187 53.9467C52.2192 53.6838 52.5571 53.3458 52.9702 52.9327C53.327 52.5759 53.6462 52.2567 53.9091 51.9563C54.172 51.6746 54.3973 51.4117 54.6038 51.1489C54.7916 50.9048 54.9606 50.6607 55.1296 50.3978C55.2798 50.1537 55.43 49.8908 55.5803 49.5904C55.8056 49.1585 55.9934 48.7454 56.1811 48.3699C56.3501 47.9755 56.5191 47.6188 56.6506 47.2244C56.8008 46.8301 56.9134 46.4546 57.0073 46.0603C57.12 45.6659 57.1951 45.2341 57.2702 44.7459C57.3453 44.2764 57.4204 43.7695 57.4767 43.1874C57.5331 42.6053 57.5894 41.9856 57.627 41.2721L57.7396 38.9062L57.8335 35.9394L57.9086 32.6346L57.9274 29.1796L57.8711 22.4011L57.796 19.3592L57.6833 16.7492L57.5519 14.7213C57.4955 14.1579 57.4392 13.7073 57.3829 13.4069C57.3265 13.0689 57.2514 12.7497 57.1575 12.4117C57.0824 12.0925 56.9885 11.7733 56.8947 11.454C56.8008 11.1348 56.7069 10.8344 56.5942 10.534C56.4816 10.2335 56.3689 9.93309 56.2562 9.65144C56.1436 9.36978 56.0121 9.08812 55.8807 8.80647C55.7493 8.52481 55.6178 8.26193 55.4676 7.99905C55.3174 7.73617 55.1672 7.47329 55.0169 7.22919C54.8667 6.98509 54.6977 6.74099 54.5287 6.49688C54.3597 6.25278 54.1908 6.02745 54.003 5.80213C53.8152 5.5768 53.6274 5.37025 53.4397 5.14493C53.2331 4.93838 53.0453 4.73183 52.82 4.52529C52.6135 4.31874 52.3881 4.13097 52.1628 3.94319C51.9375 3.75542 51.7122 3.58643 51.4681 3.41743C51.2427 3.24844 50.9799 3.07945 50.7358 2.91045C50.4917 2.76024 50.2288 2.59124 49.9659 2.4598C49.703 2.30959 49.4401 2.17814 49.1585 2.0467C48.7078 1.82138 48.2947 1.63361 47.8816 1.46461C47.4685 1.29562 47.0742 1.1454 46.6423 1.01396C46.2105 0.882523 45.7598 0.751086 45.3092 0.675977C44.821 0.582092 44.2952 0.488203 43.7131 0.431871C43.131 0.37554 42.4551 0.300432 41.6852 0.2441C40.9153 0.187769 40.0704 0.168991 39.094 0.131436L35.7704 0.0563291L31.5643 0H26.1565ZM28.9543 5.10737L36.7093 5.14493L39.6385 5.20126C40.4459 5.22003 41.0655 5.25759 41.4223 5.27637C41.8917 5.31392 42.3424 5.37025 42.7743 5.42659C43.2061 5.48292 43.6005 5.55803 43.9948 5.63313C44.4079 5.70824 44.7646 5.80213 45.1214 5.91479C45.4782 6.02745 45.8162 6.14012 46.1354 6.27156C46.4546 6.403 46.7738 6.53443 47.0742 6.70343C47.3747 6.85364 47.6563 7.02264 47.938 7.21041C48.2196 7.39818 48.4825 7.58596 48.7454 7.81128C49.0083 8.01783 49.2524 8.26193 49.4965 8.50603C49.7594 8.75013 49.9847 9.03179 50.21 9.29467C50.4353 9.55755 50.6419 9.85799 50.8109 10.1396C50.9986 10.4401 51.1676 10.7405 51.3179 11.0785C51.4681 11.4165 51.6183 11.7545 51.7309 12.1112C51.8624 12.468 51.975 12.8623 52.0689 13.2754C52.1628 13.6885 52.2567 14.1579 52.3318 14.6086C52.4069 15.0592 52.4633 15.585 52.5196 16.1295C52.5759 16.6741 52.6135 17.2562 52.651 17.8758C52.6886 18.364 52.7074 19.0212 52.7261 19.8099L52.7825 22.4387L52.82 28.898L52.7825 35.3573L52.7261 37.9861L52.651 39.9014C52.5947 40.8027 52.5384 41.5538 52.4633 42.211C52.4257 42.5302 52.3881 42.8494 52.3506 43.131C52.313 43.4127 52.2567 43.6756 52.2192 43.9384C52.1816 44.2013 52.1065 44.4267 52.0502 44.6708C51.9938 44.9149 51.9187 45.1214 51.8436 45.3467C51.7685 45.5721 51.6746 45.7974 51.5995 46.0227C51.5056 46.248 51.4117 46.4921 51.2991 46.7175C51.1864 46.9428 51.1113 47.1118 50.9986 47.3183C50.886 47.5061 50.7921 47.6939 50.6607 47.8816C50.548 48.0694 50.4165 48.2384 50.3039 48.4074C50.1724 48.5764 50.041 48.7454 49.9096 48.8956C49.7781 49.0458 49.6279 49.2148 49.4777 49.365C49.3275 49.5153 49.1773 49.6655 49.0083 49.7969C48.8581 49.9283 48.6891 50.0786 48.5201 50.1912C48.3511 50.3227 48.1633 50.4353 47.9943 50.548C47.8065 50.6607 47.6375 50.7733 47.431 50.886C47.2244 50.9986 47.0367 51.0925 46.8301 51.2052C46.6236 51.2991 46.3983 51.393 46.1917 51.4868C45.9852 51.5807 45.7411 51.6746 45.5157 51.7309C45.0463 51.8812 44.5581 52.0314 44.0511 52.144C43.5253 52.2755 42.9808 52.3694 42.4363 52.4445C42.2297 52.482 41.7415 52.5008 41.0468 52.5384L38.418 52.6135L30.9635 52.7074L23.1522 52.7261L20.0915 52.6886L18.1011 52.6323L16.6365 52.5384C16.1859 52.5008 15.754 52.4633 15.3597 52.4069C14.9654 52.3506 14.5898 52.313 14.2518 52.2379C13.8951 52.1816 13.5946 52.1065 13.2754 52.0314C12.975 51.9563 12.6933 51.8812 12.3929 51.7873C12.1112 51.6934 11.8484 51.5995 11.5855 51.4868C11.3226 51.3742 11.0785 51.2428 10.8156 51.1301C10.5715 50.9986 10.3086 50.8484 10.0645 50.6794C9.87676 50.5668 9.70777 50.4353 9.52 50.3227C9.33223 50.1912 9.18201 50.0598 9.01301 49.9283C8.84402 49.7969 8.6938 49.6655 8.54359 49.5153C8.39337 49.365 8.24315 49.2336 8.11171 49.0646C7.98027 48.9144 7.84883 48.7642 7.71739 48.5952C7.58595 48.4262 7.47329 48.2572 7.36063 48.0882C7.24797 47.9192 7.1353 47.7314 7.02264 47.5624C6.90998 47.3747 6.81609 47.2057 6.72221 46.9991C6.62832 46.7926 6.53444 46.6048 6.45933 46.3983C6.36544 46.1917 6.29033 45.9664 6.21522 45.7411C6.06501 45.2716 5.91479 44.8022 5.82091 44.314C5.70824 43.807 5.61436 43.2625 5.52047 42.6992C5.44536 42.1171 5.37025 41.5162 5.31392 40.8778C5.27637 40.4083 5.23881 39.6573 5.22004 38.7184L5.16371 35.3949L5.18248 26.9264L5.3327 18.8334L5.44536 15.9793L5.50169 15.0405C5.52047 14.8527 5.53925 14.6649 5.5768 14.4959C5.65191 14.1392 5.72702 13.7824 5.80213 13.4632C5.87724 13.144 5.95234 12.8623 6.04623 12.5619C6.14012 12.2615 6.234 12.0174 6.32789 11.7732C6.42177 11.5291 6.53444 11.285 6.6471 11.0597C6.75976 10.8344 6.87242 10.6091 7.00386 10.4025C7.1353 10.196 7.28552 9.98943 7.43574 9.78288C7.58595 9.57633 7.75495 9.38856 7.94272 9.18201C8.13049 8.97546 8.31826 8.76891 8.52481 8.56237C8.76891 8.31826 9.03179 8.07416 9.29467 7.84883C9.55755 7.62351 9.82043 7.41696 10.0833 7.24797C10.3462 7.0602 10.6278 6.8912 10.9095 6.74098C11.2099 6.59077 11.4916 6.44055 11.8108 6.32788C12.13 6.21522 12.4492 6.10256 12.806 5.9899C13.1628 5.87724 13.5383 5.80213 13.9138 5.72702C14.2894 5.65191 14.7213 5.5768 15.1719 5.52047C15.6226 5.46414 16.092 5.40781 16.599 5.37026C16.9557 5.3327 17.5566 5.31392 18.364 5.29514L21.2745 5.23881L28.9543 5.10737Z" fill="#FFFFFE"/>
</g>
</g>
</svg>
