<svg width="18" height="18" viewBox="0 0 18 18" fill="none" xmlns="http://www.w3.org/2000/svg">
<path fill-rule="evenodd" clip-rule="evenodd" d="M8.10938 14.3438H9.89062V12.5625H8.10938V14.3438ZM9 0.09375C4.08375 0.09375 0.09375 4.08375 0.09375 9C0.09375 13.9163 4.08375 17.9062 9 17.9062C13.9163 17.9062 17.9062 13.9163 17.9062 9C17.9062 4.08375 13.9163 0.09375 9 0.09375ZM9 16.125C5.07234 16.125 1.875 12.9277 1.875 9C1.875 5.07234 5.07234 1.875 9 1.875C12.9277 1.875 16.125 5.07234 16.125 9C16.125 12.9277 12.9277 16.125 9 16.125ZM9 3.65625C7.03172 3.65625 5.4375 5.25047 5.4375 7.21875H7.21875C7.21875 6.23906 8.02031 5.4375 9 5.4375C9.97969 5.4375 10.7812 6.23906 10.7812 7.21875C10.7812 9 8.10938 8.77734 8.10938 11.6719H9.89062C9.89062 9.66797 12.5625 9.44531 12.5625 7.21875C12.5625 5.25047 10.9683 3.65625 9 3.65625Z" fill="white"/>
</svg>
