<svg width="22" height="22" viewBox="0 0 22 22" fill="none" xmlns="http://www.w3.org/2000/svg">
<path d="M6.90802 9.83008H14.768" stroke="white" stroke-width="2" stroke-linecap="round"/>
<path fill-rule="evenodd" clip-rule="evenodd" d="M18.8757 17.9777H14.4811C13.4231 17.9777 12.2623 21.3584 11.1005 21.3584C9.94717 21.3584 8.7929 17.9777 7.74145 17.9777H3.32531C2.01777 17.9777 0.95882 16.9178 0.95882 15.6111L0.957886 2.76432C0.957886 1.45768 2.01776 0.397766 3.32437 0.397766H18.8757C20.1823 0.397766 21.2422 1.45768 21.2422 2.76432V15.6111C21.2422 16.9178 20.1833 17.9777 18.8757 17.9777H18.8757ZM19.8898 3.10256C19.8898 2.35576 19.2842 1.75012 18.5374 1.75012H3.66267C2.9159 1.75012 2.31027 2.35576 2.31027 3.10256V15.2737C2.31027 16.0205 2.9159 16.6261 3.66267 16.6261H8.41618C9.28725 16.6261 10.1723 19.6694 11.0996 19.6694C11.9912 19.6694 12.923 16.6261 13.7623 16.6261H18.5374C19.2842 16.6261 19.8898 16.0205 19.8898 15.2737V3.10256Z" fill="white"/>
</svg>
