<svg width="38" height="36" viewBox="0 0 38 36" fill="none" xmlns="http://www.w3.org/2000/svg">
<g opacity="0.7">
<path fill-rule="evenodd" clip-rule="evenodd" d="M37.376 16.0234C37.376 18.3571 36.7828 20.5719 35.7186 22.5633C35.71 22.5858 35.7006 22.6082 35.6902 22.6304C33.7227 26.8465 30.4474 30.3152 26.351 32.521L21.789 34.9775C20.619 35.6075 19.221 34.6716 19.3578 33.3498L19.5245 31.7384C19.3622 31.742 19.1994 31.7438 19.036 31.7438C8.90714 31.7438 0.696045 24.7056 0.696045 16.0234C0.696045 7.34125 8.90714 0.302979 19.036 0.302979C29.1649 0.302979 37.376 7.34125 37.376 16.0234ZM9.60403 19.1675C11.051 19.1675 12.224 17.9944 12.224 16.5474C12.224 15.1004 11.051 13.9274 9.60403 13.9274C8.15705 13.9274 6.98404 15.1004 6.98404 16.5474C6.98404 17.9944 8.15705 19.1675 9.60403 19.1675ZM21.656 16.5474C21.656 17.9944 20.483 19.1675 19.036 19.1675C17.589 19.1675 16.416 17.9944 16.416 16.5474C16.416 15.1004 17.589 13.9274 19.036 13.9274C20.483 13.9274 21.656 15.1004 21.656 16.5474ZM28.468 19.1675C29.915 19.1675 31.088 17.9944 31.088 16.5474C31.088 15.1004 29.915 13.9274 28.468 13.9274C27.021 13.9274 25.848 15.1004 25.848 16.5474C25.848 17.9944 27.021 19.1675 28.468 19.1675Z" fill="white"/>
</g>
</svg>
