<svg width="49" height="30" viewBox="0 0 49 30" fill="none" xmlns="http://www.w3.org/2000/svg">
<rect x="0.919983" y="0.445801" width="37.728" height="29.3448" rx="8" fill="#65D2E9"/>
<rect x="10.352" y="0.445801" width="37.728" height="29.3448" rx="8" fill="#E6436D"/>
<rect x="5.112" y="0.445801" width="37.728" height="29.3448" rx="8" fill="white"/>
<path d="M23.4316 7.78204C22.8793 7.78204 22.4316 8.22976 22.4316 8.78204V13.5738H17.64C17.0877 13.5738 16.64 14.0215 16.64 14.5738V15.6627C16.64 16.215 17.0877 16.6627 17.64 16.6627H22.4316V21.4544C22.4316 22.0067 22.8793 22.4544 23.4316 22.4544H24.5204C25.0727 22.4544 25.5204 22.0067 25.5204 21.4544V16.6627H30.312C30.8643 16.6627 31.312 16.215 31.312 15.6627V14.5738C31.312 14.0215 30.8643 13.5738 30.312 13.5738H25.5204V8.78204C25.5204 8.22976 25.0727 7.78204 24.5204 7.78204H23.4316Z" fill="black"/>
</svg>
