<svg width="21" height="20" viewBox="0 0 21 20" fill="none" xmlns="http://www.w3.org/2000/svg">
<g id="car-speed-limiter 1" clip-path="url(#clip0_36_159)">
<path id="Vector" d="M0.5 11.0834C0.5 5.58337 5 1.08337 10.5 1.08337C16 1.08337 20.5 5.58337 20.5 11.0834C20.5 14.3334 19 17.1667 16.6667 18.9167L13.4167 15.6667L15.1667 13.9167L16.6667 15.4167C17.25 14.4167 17.6667 13.4167 17.9167 12.3334H15.5V9.83337H17.8333C17.75 8.75004 17.25 7.58337 16.5833 6.75004L12.8333 10.5C13 10.6667 13 10.8334 13 11.0834C13 12.5 11.9167 13.5834 10.5 13.5834C9.08333 13.5834 8 12.5 8 11.0834C8 9.66671 9.08333 8.58337 10.5 8.58337C10.75 8.58337 10.8333 8.66671 11.0833 8.66671L14.8333 4.91671C13.8333 4.33337 12.8333 3.91671 11.75 3.66671V6.00004H9.25V3.75004C8.16667 3.83337 7 4.33337 6.16667 4.91671L7.66667 6.41671L5.91667 8.16671L4.41667 6.66671C3.83333 7.66671 3.41667 8.66671 3.16667 9.75004H5.5V12.25H3.16667C3.25 13.3334 3.75 14.5 4.41667 15.3334L5.91667 13.8334L7.66667 15.5834L5.08333 18.1667L4.5 18.75C2 17.1667 0.5 14.3334 0.5 11.0834Z" fill="#4698F7"/>
</g>
<defs>
<clipPath id="clip0_36_159">
<rect width="20" height="20" fill="white" transform="translate(0.5)"/>
</clipPath>
</defs>
</svg>
