<svg width="39" height="36" viewBox="0 0 39 36" fill="none" xmlns="http://www.w3.org/2000/svg">
<path opacity="0.7" d="M19.5121 35.2377C18.9913 35.2377 18.4724 35.0436 18.0458 34.6535C16.5334 33.2892 15.0671 31.9744 13.743 30.8537C9.96097 27.4934 6.6517 24.6181 4.38201 21.7924C1.82989 18.6262 0.64801 15.6066 0.64801 12.3434C0.64801 9.12768 1.68769 6.20481 3.62673 4.06249C5.56578 1.87049 8.2601 0.65271 11.1908 0.65271C13.3662 0.65271 15.3514 1.38338 17.1002 2.74768C17.9977 3.47835 18.8029 4.30605 19.512 5.32977C20.2211 4.30605 21.0244 3.47835 21.9238 2.74768C23.6726 1.33584 25.6578 0.65271 27.8332 0.65271C30.7639 0.65271 33.4122 1.87049 35.3973 4.06249C37.3363 6.20501 38.376 9.17717 38.376 12.3434C38.376 15.6562 37.1941 18.6262 34.642 21.7924C32.3724 24.618 29.063 27.4911 25.281 30.8537C24.005 31.9744 22.4925 33.2892 20.9782 34.6535C20.5516 35.0436 20.0327 35.2377 19.5119 35.2377H19.5121Z" fill="white"/>
</svg>
